<svg width="270" height="40" viewBox="0 0 270 40" fill="none" xmlns="http://www.w3.org/2000/svg">
<rect width="40" height="40" rx="20" fill="#FFEAA7"/>
<path d="M25 10H22C20.6739 10 19.4021 10.5268 18.4645 11.4645C17.5268 12.4021 17 13.6739 17 15V18H14V22H17V30H21V22H24L25 18H21V15C21 14.7348 21.1054 14.4804 21.2929 14.2929C21.4804 14.1054 21.7348 14 22 14H25V10Z" stroke="#6C5CE7" stroke-width="2" stroke-linecap="round" stroke-linejoin="round"/>
<path d="M101 16C102.591 16 104.117 16.6321 105.243 17.7574C106.368 18.8826 107 20.4087 107 22V29H103V22C103 21.4696 102.789 20.9609 102.414 20.5858C102.039 20.2107 101.53 20 101 20C100.47 20 99.9609 20.2107 99.5858 20.5858C99.2107 20.9609 99 21.4696 99 22V29H95V22C95 20.4087 95.6321 18.8826 96.7574 17.7574C97.8826 16.6321 99.4087 16 101 16V16Z" stroke="#6C5CE7" stroke-width="2" stroke-linecap="round" stroke-linejoin="round"/>
<path d="M91 17H87V29H91V17Z" stroke="#6C5CE7" stroke-width="2" stroke-linecap="round" stroke-linejoin="round"/>
<path d="M89 14C90.1046 14 91 13.1046 91 12C91 10.8954 90.1046 10 89 10C87.8954 10 87 10.8954 87 12C87 13.1046 87.8954 14 89 14Z" stroke="#6C5CE7" stroke-width="2" stroke-linecap="round" stroke-linejoin="round"/>
<path d="M183.074 17.0021C180.804 9.41214 177.534 7.65214 169.994 9.92214C162.454 12.1921 160.644 15.4621 162.914 23.0021C165.184 30.5421 168.454 32.3521 175.994 30.0821C183.534 27.8121 185.344 24.5421 183.074 17.0021Z" stroke="#6C5CE7" stroke-width="2" stroke-linecap="round" stroke-linejoin="round"/>
<path d="M173.564 13.9922L177.144 24.3922" stroke="#6C5CE7" stroke-width="2" stroke-linecap="round" stroke-linejoin="round"/>
<path d="M168.844 15.6121L172.424 26.0121" stroke="#6C5CE7" stroke-width="2" stroke-linecap="round" stroke-linejoin="round"/>
<path d="M177.384 15.8521L166.984 19.4321" stroke="#6C5CE7" stroke-width="2" stroke-linecap="round" stroke-linejoin="round"/>
<path d="M179.004 20.572L168.604 24.152" stroke="#6C5CE7" stroke-width="2" stroke-linecap="round" stroke-linejoin="round"/>
<path d="M261 11.0101C260.042 11.6855 258.982 12.2022 257.86 12.5401C257.258 11.8476 256.457 11.3567 255.567 11.134C254.677 10.9112 253.739 10.9673 252.882 11.2945C252.025 11.6218 251.288 12.2045 250.773 12.9638C250.258 13.7231 249.988 14.6224 250 15.5401V16.5401C248.243 16.5856 246.501 16.1959 244.931 15.4055C243.361 14.6151 242.01 13.4487 241 12.0101C241 12.0101 237 21.0101 246 25.0101C243.941 26.408 241.487 27.109 239 27.0101C248 32.0101 259 27.0101 259 15.5101C258.999 15.2315 258.972 14.9537 258.92 14.6801C259.941 13.6735 260.661 12.4028 261 11.0101V11.0101Z" stroke="#6C5CE7" stroke-width="2" stroke-linecap="round" stroke-linejoin="round"/>
</svg>
